# xmcd
#
# Track frame offsets: 
#        150
#        13772
#        23717
#        35573
#        48593
#        67835
#        79704
#        91384
#        102816
#        116509
#        129360
#        142637
#        155267
#        167835
#        179445
#        193326
#        206729
#        221740
#        234525
#        249086
#        261976
#        277207
#        291089
#        306396
#        318503
#
# Disc length: 4381 seconds
#
# Revision: 1
# Processed by: cddbd v1.5.2PL0 Copyright (c) Steve Scherf et al.
# Submitted via: ExactAudioCopy v1.0b3
#
DISCID=69111b19
DTITLE=Various Artist - Essential Alabama Blues
DYEAR=2013
DGENRE=Blues
TTITLE0=Big Mama Thornton - Walking Blues
TTITLE1=Arthur Alexander - Sally Sue Brown
TTITLE2=Ralph Willis - Income Tax Blues
TTITLE3=Dan Pickett - Lemon Man
TTITLE4=Horace Sprott - Black Snake Blues
TTITLE5=Barefoot Bill - Snigglin' Blues
TTITLE6=Dan Picket - Something's Gone Wrong
TTITLE7=Walter Roland - Big Mama
TTITLE8=Ed Bell - Squabblin' Blues
TTITLE9=Edward Thompson - Seven Sister Blues
TTITLE10=Clifford Gibson - Blues Without A Dime
TTITLE11=Daddy Stovepipe - The Spasm
TTITLE12=Frankie 'Half Pint' Jaxon - I Wonder Where My Easy Rider's Go
TTITLE12=ne
TTITLE13=Cow Cow Davenport - Cow Cow Blues
TTITLE14=Ollis Martin - Police And High Sheriff Come Ridin' Down
TTITLE15=Lucille Bogan - Baking Powder Blues
TTITLE16=Jabo Williams - Polock Blues
TTITLE17=Edward Thompson - Showers Of Rain
TTITLE18=Walter Roland - Red Cross Blues
TTITLE19=Frankie 'Half Pint' Jaxon - Callin' Corrine
TTITLE20=Ben Covington - Boodle-De-Dum Blues
TTITLE21=Jaybird Coleman - Coffee Grinder Blues
TTITLE22=Lucille Bogan - Shave 'Em Dry
TTITLE23=Paul Bascomb - After Hours
TTITLE24=Lucky Millinder and His Orchestra - Moanin' The Blues
EXTD=
EXTT0=
EXTT1=
EXTT2=
EXTT3=
EXTT4=
EXTT5=
EXTT6=
EXTT7=
EXTT8=
EXTT9=
EXTT10=
EXTT11=
EXTT12=
EXTT13=
EXTT14=
EXTT15=
EXTT16=
EXTT17=
EXTT18=
EXTT19=
EXTT20=
EXTT21=
EXTT22=
EXTT23=
EXTT24=
PLAYORDER=
